<svg xmlns="http://www.w3.org/2000/svg" width="100" height="100" viewBox="0 0 100 100">
  <g fill="#7D8A2E" opacity="0.15">
    <circle cx="10" cy="10" r="2" />
    <circle cx="30" cy="10" r="2" />
    <circle cx="50" cy="10" r="2" />
    <circle cx="70" cy="10" r="2" />
    <circle cx="90" cy="10" r="2" />
    
    <circle cx="20" cy="20" r="2" />
    <circle cx="40" cy="20" r="2" />
    <circle cx="60" cy="20" r="2" />
    <circle cx="80" cy="20" r="2" />
    
    <circle cx="10" cy="30" r="2" />
    <circle cx="30" cy="30" r="2" />
    <circle cx="50" cy="30" r="2" />
    <circle cx="70" cy="30" r="2" />
    <circle cx="90" cy="30" r="2" />
    
    <circle cx="20" cy="40" r="2" />
    <circle cx="40" cy="40" r="2" />
    <circle cx="60" cy="40" r="2" />
    <circle cx="80" cy="40" r="2" />
    
    <circle cx="10" cy="50" r="2" />
    <circle cx="30" cy="50" r="2" />
    <circle cx="50" cy="50" r="2" />
    <circle cx="70" cy="50" r="2" />
    <circle cx="90" cy="50" r="2" />
    
    <circle cx="20" cy="60" r="2" />
    <circle cx="40" cy="60" r="2" />
    <circle cx="60" cy="60" r="2" />
    <circle cx="80" cy="60" r="2" />
    
    <circle cx="10" cy="70" r="2" />
    <circle cx="30" cy="70" r="2" />
    <circle cx="50" cy="70" r="2" />
    <circle cx="70" cy="70" r="2" />
    <circle cx="90" cy="70" r="2" />
    
    <circle cx="20" cy="80" r="2" />
    <circle cx="40" cy="80" r="2" />
    <circle cx="60" cy="80" r="2" />
    <circle cx="80" cy="80" r="2" />
    
    <circle cx="10" cy="90" r="2" />
    <circle cx="30" cy="90" r="2" />
    <circle cx="50" cy="90" r="2" />
    <circle cx="70" cy="90" r="2" />
    <circle cx="90" cy="90" r="2" />
  </g>
</svg>
